<?xml version="1.0" encoding="UTF-8"?>
<svg width="906px" height="164px" viewBox="0 0 306 84" version="1.1" xmlns="http://www.w3.org/2000/svg" xmlns:xlink="http://www.w3.org/1999/xlink">
    <title>beet_logo_white</title>
    <desc>Created with Sketch.</desc>
    <g id="Logos" stroke="none" stroke-width="1" fill="none" fill-rule="evenodd">
        <g id="beet_logo_specs" transform="translate(-753.000000, -1302.000000)" fill="#FFFFFF">
            <g id="Group-2-Copy-2" transform="translate(110.000000, 1197.000000)">
                <g id="beet_logo_white" transform="translate(643.000000, 105.000000)">
                    <path d="M135,55.0861037 C135,55.4462544 134.780557,55.6263298 134.341672,55.6263298 L127.590247,55.6263298 L127.590247,77.3267952 C127.590247,77.509641 127.533249,77.6647828 127.416403,77.7977615 C127.302407,77.9335106 127.154212,78 126.968968,78 L125.065231,78 C124.902787,78 124.760291,77.9335106 124.632046,77.7977615 C124.50095,77.6647828 124.443952,77.509641 124.443952,77.3267952 L124.443952,55.6263298 L117.692527,55.6263298 C117.230842,55.6263298 117,55.4462544 117,55.0861037 L117,53.6067154 C117,53.4515736 117.071248,53.3075133 117.208043,53.1856161 C117.347688,53.063719 117.504433,53 117.692527,53 L134.341672,53 C134.780557,53 135,53.2022385 135,53.6067154 L135,55.0861037 Z" id="Fill-1"></path>
                    <path d="M145.979885,67.1864506 L145.979885,66.8840707 C145.979885,65.0198569 145.619482,63.6716309 144.89309,62.8393926 C144.172285,62.0099285 143.049171,61.5938093 141.534923,61.5938093 C138.503632,61.5938093 136.98659,63.3581545 136.98659,66.8840707 L136.98659,67.1864506 L145.979885,67.1864506 Z M149,68.7038984 C149,69.1976931 148.784876,69.4418163 148.357422,69.4418163 L136.98659,69.4418163 L136.98659,69.913418 C136.98659,71.869178 137.372136,73.2728866 138.14323,74.1273179 C138.911529,74.9817492 140.098901,75.4061907 141.705346,75.4061907 C144.099646,75.4061907 146.116782,75.2841291 147.742783,75.0372317 L147.913205,75.0372317 C148.276402,75.0372317 148.455206,75.195357 148.455206,75.5088334 L148.455206,76.6545481 C148.455206,77.0817638 148.231701,77.3397576 147.781896,77.4285297 C145.789905,77.8113593 143.764388,78 141.705346,78 C140.666046,78 139.707767,77.8668419 138.833302,77.5977515 C137.967219,77.3286611 137.159806,76.9014455 136.40827,76.3161045 C135.665115,75.7335377 135.075619,74.8957512 134.645372,73.8082932 C134.215124,72.718061 134,71.4197693 134,69.913418 L134,66.8840707 C134,64.434516 134.656547,62.5064973 135.969641,61.1055629 C137.282734,59.7018543 139.137828,59 141.534923,59 C143.954368,59 145.806668,59.7018543 147.086236,61.1055629 C148.360216,62.5064973 149,64.434516 149,66.8840707 L149,68.7038984 Z" id="Fill-3"></path>
                    <path d="M164,76.890349 C164,77.2953716 163.776449,77.5422689 163.329347,77.631041 C161.98804,77.8751643 160.594296,78 159.139834,78 C156.882245,78 155.126955,77.2676303 153.876725,75.7945686 C152.626495,74.3242809 152,72.3296832 152,69.8135494 L152,67.1864506 C152,64.6703168 152.626495,62.6757191 153.876725,61.2054314 C155.126955,59.7323697 156.882245,59 159.139834,59 C160.594296,59 161.98804,59.1220616 163.329347,59.3717331 C163.597056,59.413345 163.776449,59.4882465 163.867525,59.5881151 C163.953082,59.6879836 164,59.8627537 164,60.109651 L164,61.3247189 C164,61.6631625 163.812328,61.826836 163.431463,61.826836 L163.296228,61.826836 C161.908004,61.674259 160.522539,61.5938093 159.139834,61.5938093 C156.344066,61.5938093 154.950322,63.4580231 154.950322,67.1864506 L154.950322,69.8135494 C154.950322,73.5419769 156.344066,75.4061907 159.139834,75.4061907 C160.522539,75.4061907 161.908004,75.3312892 163.296228,75.173164 L163.431463,75.173164 C163.812328,75.173164 164,75.3368375 164,75.6780552 L164,76.890349 Z" id="Fill-5"></path>
                    <path d="M182,76.3349026 C182,76.5128093 181.934285,76.6688198 181.800117,76.8001971 C181.66595,76.9343114 181.509877,77 181.334637,77 L179.738314,77 C179.560336,77 179.407002,76.9343114 179.272834,76.8001971 C179.138666,76.6688198 179.072951,76.5128093 179.072951,76.3349026 L179.072951,65.3977447 C179.072951,63.8266915 178.76902,62.7072476 178.161158,62.0421502 C177.547819,61.3770528 176.668883,61.0458726 175.516135,61.0458726 C173.832192,61.0458726 172.298846,61.3551566 170.927049,61.9764616 L170.927049,76.3349026 C170.927049,76.5128093 170.858596,76.6688198 170.724428,76.8001971 C170.592998,76.9343114 170.434187,77 170.261686,77 L168.629767,77 C168.45179,77 168.301193,76.9343114 168.180716,76.8001971 C168.0575,76.6688198 168,76.5128093 168,76.3349026 L168,52.6678345 C168,52.4899277 168.0575,52.3339172 168.180716,52.20254 C168.301193,52.0684257 168.45179,52 168.629767,52 L170.294543,52 C170.472521,52 170.623118,52.0684257 170.740857,52.20254 C170.86681,52.3339172 170.927049,52.4899277 170.927049,52.6678345 L170.927049,59.5158748 C172.498729,58.8288811 174.196362,58.4867528 176.011735,58.4867528 C177.876394,58.4867528 179.335811,59.0505802 180.403677,60.1809722 C181.468805,61.3113641 182,63.049376 182,65.3977447 L182,76.3349026 Z" id="Fill-7"></path>
                    <path d="M201,77.3174157 C201,77.5 200.937023,77.6601124 200.802855,77.7949438 C200.668688,77.9325843 200.512615,78 200.334637,78 L198.741052,78 C198.560336,78 198.407002,77.9325843 198.272834,77.7949438 C198.138666,77.6601124 198.075689,77.5 198.075689,77.3174157 L198.075689,66.0926966 C198.075689,64.4101124 197.790925,63.238764 197.226873,62.5814607 C196.660082,61.9213483 195.720907,61.5898876 194.417563,61.5898876 C193.149814,61.5898876 191.65754,62.0337079 189.924311,62.9213483 L189.924311,77.3174157 C189.924311,77.5 189.861334,77.6601124 189.727166,77.7949438 C189.592998,77.9325843 189.436925,78 189.258948,78 L187.632505,78 C187.454528,78 187.303931,77.9325843 187.180716,77.7949438 C187.060239,77.6601124 187,77.5 187,77.3174157 L187,59.9213483 C187,59.7359551 187.060239,59.5786517 187.180716,59.4410112 C187.303931,59.3061798 187.454528,59.2359551 187.632505,59.2359551 L189.297281,59.2359551 C189.469783,59.2359551 189.620379,59.3061798 189.743595,59.4410112 C189.864072,59.5786517 189.924311,59.7359551 189.924311,59.9213483 L189.924311,60.5674157 C191.742421,59.5224719 193.508508,59 195.214356,59 C199.072365,59 201,61.3623596 201,66.0926966 L201,77.3174157 Z" id="Fill-9"></path>
                    <path d="M217.036078,69.7786861 L217.036078,67.2213139 C217.036078,63.4712409 215.518039,61.5962044 212.484736,61.5962044 C209.473636,61.5962044 207.963922,63.4712409 207.963922,67.2213139 L207.963922,69.7786861 C207.963922,73.5343066 209.473636,75.4037956 212.484736,75.4037956 C214.013876,75.4037956 215.151711,74.9183942 215.906568,73.9420438 C216.658649,72.9629197 217.036078,71.5760584 217.036078,69.7786861 L217.036078,69.7786861 Z M220,69.7786861 C220,72.3166423 219.356152,74.3248175 218.062905,75.7948905 C216.769658,77.2649635 214.910268,78 212.484736,78 C210.056429,78 208.20259,77.2649635 206.920444,75.7948905 C205.643848,74.3248175 205,72.3166423 205,69.7786861 L205,67.2213139 C205,64.6805839 205.643848,62.6751825 206.920444,61.2051095 C208.20259,59.7350365 210.056429,59 212.484736,59 C214.910268,59 216.769658,59.7350365 218.062905,61.2051095 C219.356152,62.6751825 220,64.6805839 220,67.2213139 L220,69.7786861 Z" id="Fill-11"></path>
                    <path d="M227,76.3349026 C227,76.5128093 226.941066,76.6688198 226.828812,76.8001971 C226.713751,76.9343114 226.56782,77 226.385407,77 L224.611787,77 C224.451824,77 224.311506,76.9343114 224.18522,76.8001971 C224.06174,76.6688198 224,76.5128093 224,76.3349026 L224,52.6349901 C224,52.2134881 224.202058,52 224.611787,52 L226.385407,52 C226.56782,52 226.713751,52.0656886 226.828812,52.1861178 C226.941066,52.309284 227,52.4570834 227,52.6349901 L227,76.3349026 Z" id="Fill-13"></path>
                    <path d="M243.030527,69.7786861 L243.030527,67.2213139 C243.030527,63.4712409 241.515264,61.5962044 238.479186,61.5962044 C235.468085,61.5962044 233.963922,63.4712409 233.963922,67.2213139 L233.963922,69.7786861 C233.963922,73.5343066 235.468085,75.4037956 238.479186,75.4037956 C240.008326,75.4037956 241.151711,74.9183942 241.901018,73.9420438 C242.655874,72.9629197 243.030527,71.5760584 243.030527,69.7786861 L243.030527,69.7786861 Z M246,69.7786861 C246,72.3166423 245.350601,74.3248175 244.06013,75.7948905 C242.766883,77.2649635 240.907493,78 238.479186,78 C236.053654,78 234.20259,77.2649635 232.917669,75.7948905 C231.638298,74.3248175 231,72.3166423 231,69.7786861 L231,67.2213139 C231,64.6805839 231.638298,62.6751825 232.917669,61.2051095 C234.20259,59.7350365 236.053654,59 238.479186,59 C240.907493,59 242.766883,59.7350365 244.06013,61.2051095 C245.350601,62.6751825 246,64.6805839 246,67.2213139 L246,69.7786861 Z" id="Fill-15"></path>
                    <path d="M260.578578,65.1669777 L260.578578,64.898013 C260.578578,63.7864749 260.257243,62.9164563 259.617208,62.2824679 C258.982441,61.6484795 257.860404,61.3356022 256.258999,61.3356022 C254.615452,61.3356022 253.488147,61.6567131 252.869183,62.2989351 C252.250219,62.9439016 251.942054,63.8111758 251.942054,64.898013 L251.942054,65.1669777 C251.942054,67.4312219 253.382792,68.5647162 256.258999,68.5647162 C257.881475,68.5647162 259.003512,68.2710506 259.638279,67.6837194 C260.265145,67.0936436 260.578578,66.2538149 260.578578,65.1669777 L260.578578,65.1669777 Z M260.836699,78.8320343 L260.836699,78.5685586 C260.836699,77.9428038 260.557507,77.4570205 260.001756,77.1002305 C259.448639,76.7434406 258.424056,76.3646943 256.930641,75.9667362 L253.316945,74.9979142 C252.782265,75.4672302 252.389816,75.950269 252.131694,76.4470304 C251.876207,76.9492809 251.747147,77.5997365 251.747147,78.3983972 L251.747147,78.7002964 C251.747147,79.6993084 252.09482,80.4540564 252.787533,80.9672851 C253.48288,81.4750247 254.673398,81.7330113 256.353819,81.7330113 C258.084284,81.7330113 259.261633,81.4997255 259.888499,81.033154 C260.520632,80.5665825 260.836699,79.8337908 260.836699,78.8320343 L260.836699,78.8320343 Z M264,60.6000659 C264,60.9568559 263.81036,61.1654408 263.425812,61.2313097 L262.274802,61.4645955 C262.996488,62.2660007 263.359965,63.4104732 263.359965,64.898013 L263.359965,65.1669777 C263.359965,68.9681634 260.994732,70.8646394 256.258999,70.8646394 C254.81036,70.8646394 253.572432,70.6450763 252.547849,70.1977165 C252.015803,70.4666813 251.747147,70.8426831 251.747147,71.3339554 C251.747147,71.8636513 252.079017,72.2204413 252.740123,72.4015809 L257.510097,73.666813 C258.273924,73.8671643 258.898156,74.0428148 259.380158,74.1992535 C259.859526,74.3556922 260.402107,74.5725107 261.010536,74.8469645 C261.618964,75.1269075 262.085162,75.4205731 262.417032,75.7334504 C262.746269,76.0435833 263.035996,76.4442859 263.280948,76.9328137 C263.5259,77.4213415 263.649693,77.9647601 263.649693,78.5685586 L263.649693,78.8320343 C263.649693,82.2764299 261.215979,84 256.353819,84 C253.880597,84 252.039508,83.536173 250.820018,82.6140081 C249.605795,81.6918432 249,80.3881875 249,78.7002964 L249,78.3983972 C249,76.6446372 249.669008,75.2339445 251.012291,74.1635745 L250.788411,74.0647711 C249.808604,73.6229004 249.318701,72.7583708 249.318701,71.4684378 L249.318701,71.4327588 C249.318701,70.3459216 249.755926,69.5445164 250.630378,69.0312877 C249.650571,68.0789329 249.158033,66.7889999 249.158033,65.1669777 L249.158033,64.898013 C249.158033,63.1881656 249.708516,61.7774728 250.804214,60.6659348 C251.90518,59.5543968 253.71993,59 256.258999,59 L263.267779,59 C263.457419,59 263.628622,59.071358 263.778753,59.2168185 C263.926251,59.3622791 264,59.5324404 264,59.7355363 L264,60.6000659 Z" id="Fill-17"></path>
                    <path d="M270.934842,76.3401043 C270.934842,76.5166196 270.869683,76.67141 270.736652,76.8017597 C270.60362,76.9348251 270.451584,77 270.275113,77 L268.695023,77 C268.515837,77 268.363801,76.9348251 268.230769,76.8017597 C268.097738,76.67141 268.035294,76.5166196 268.035294,76.3401043 L268.035294,59.5222681 C268.035294,59.3430371 268.097738,59.1909624 268.230769,59.057897 C268.363801,58.9275473 268.515837,58.8596567 268.695023,58.8596567 L270.275113,58.8596567 C270.451584,58.8596567 270.60362,58.9275473 270.736652,59.057897 C270.869683,59.1909624 270.934842,59.3430371 270.934842,59.5222681 L270.934842,76.3401043 Z M271,55.296763 C271,55.4732783 270.934842,55.6280687 270.804525,55.761134 C270.671493,55.8941994 270.519457,55.9566587 270.342986,55.9566587 L268.659729,55.9566587 C268.485973,55.9566587 268.331222,55.8941994 268.19819,55.761134 C268.065158,55.6280687 268,55.4732783 268,55.296763 L268,52.6598957 C268,52.486096 268.065158,52.32859 268.19819,52.1955247 C268.331222,52.0678905 268.485973,52 268.659729,52 L270.342986,52 C270.519457,52 270.671493,52.0678905 270.804525,52.1955247 C270.934842,52.32859 271,52.486096 271,52.6598957 L271,55.296763 Z" id="Fill-20"></path>
                    <path d="M287.976528,67.1864506 L287.976528,66.8840707 C287.976528,65.0198569 287.616058,63.6716309 286.892325,62.8393926 C286.168592,62.0099285 285.048063,61.5938093 283.533532,61.5938093 C280.498882,61.5938093 278.984352,63.3581545 278.984352,66.8840707 L278.984352,67.1864506 L287.976528,67.1864506 Z M291,68.7038984 C291,69.1976931 290.784836,69.4418163 290.354508,69.4418163 L278.984352,69.4418163 L278.984352,69.913418 C278.984352,71.869178 279.36997,73.2728866 280.138413,74.1273179 C280.90965,74.9817492 282.097243,75.4061907 283.703987,75.4061907 C286.101528,75.4061907 288.11345,75.2841291 289.745343,75.0372317 L289.913003,75.0372317 C290.273472,75.0372317 290.457899,75.195357 290.457899,75.5088334 L290.457899,76.6545481 C290.457899,77.0817638 290.231557,77.3397576 289.778875,77.4285297 C287.786513,77.8113593 285.760618,78 283.703987,78 C282.661699,78 281.706036,77.8668419 280.834203,77.5977515 C279.965164,77.3286611 279.154806,76.9014455 278.408718,76.3161045 C277.665425,75.7335377 277.07582,74.8957512 276.642697,73.8082932 C276.215164,72.718061 276,71.4197693 276,69.913418 L276,66.8840707 C276,64.434516 276.653875,62.5064973 277.967213,61.1055629 C279.280551,59.7018543 281.133197,59 283.533532,59 C285.950633,59 287.803279,59.7018543 289.083085,61.1055629 C290.362891,62.5064973 291,64.434516 291,66.8840707 L291,68.7038984 Z" id="Fill-22"></path>
                    <path d="M306,73.1154745 C306,74.7769343 305.460067,76.0084672 304.374803,76.8045255 C303.294938,77.6005839 301.791226,78 299.869066,78 C297.747132,78 296.024747,77.8308029 294.688414,77.4951825 C294.232171,77.3814599 294,77.1567883 294,76.8211679 L294,75.6423358 C294,75.3039416 294.197075,75.1375182 294.591226,75.1375182 L294.72351,75.1375182 C296.64297,75.3816058 298.359955,75.5064234 299.869066,75.5064234 C300.984027,75.5064234 301.802025,75.3289051 302.328459,74.9683212 C302.852193,74.6077372 303.11676,73.9891971 303.11676,73.1154745 C303.11676,72.6217518 302.938583,72.1779562 302.590326,71.7868613 C302.23937,71.3929927 301.594151,70.9020438 300.657368,70.319562 L297.344882,68.2975182 C295.114961,66.9078832 294,65.2991241 294,63.479562 C294,60.4922628 295.978853,59 299.936558,59 C301.68324,59 303.386727,59.1470073 305.049719,59.4354745 C305.465467,59.5048175 305.673341,59.7294891 305.673341,60.1122628 L305.673341,61.2217518 C305.673341,61.6072993 305.489764,61.7959124 305.11721,61.7959124 L305.017323,61.7959124 C302.984477,61.6156204 301.291789,61.5268613 299.936558,61.5268613 C298.886389,61.5268613 298.114286,61.6544526 297.622947,61.9124088 C297.131609,62.1731387 296.88324,62.6945985 296.88324,63.479562 C296.88324,63.9510949 297.058718,64.3727007 297.409674,64.7416058 C297.75793,65.1132847 298.338358,65.5459854 299.148256,66.039708 L302.395951,68.0284672 C303.726884,68.8356204 304.663667,69.6344526 305.195501,70.4194161 C305.730034,71.2071533 306,72.1058394 306,73.1154745" id="Fill-24"></path>
                    <path d="M140.592944,33.3995644 L140.592944,32.3867377 C140.592944,27.3552759 137.596885,24.8340997 131.621094,24.8340997 L122.472366,24.8340997 L122.472366,41.1836278 C122.864221,41.1836278 123.794877,41.2244676 125.261612,41.3034245 C126.722905,41.3851041 127.854931,41.4204985 128.649526,41.4204985 C132.649714,41.4204985 135.637609,40.8487415 137.621376,39.6970595 C139.5997,38.5535455 140.592944,36.4489351 140.592944,33.3995644 L140.592944,33.3995644 Z M140.353477,13.4207406 L140.353477,12.4705348 C140.353477,9.81594869 139.352069,8.00266215 137.354696,7.03067522 C135.351881,6.06141094 132.353101,5.57405615 128.350192,5.57405615 C127.756967,5.57405615 125.797692,5.6339545 122.472366,5.75375121 L122.472366,20.4969143 L131.621094,20.4969143 C137.441775,20.4969143 140.353477,18.1390973 140.353477,13.4207406 L140.353477,13.4207406 Z M146,33.3995644 C146,41.7989472 140.214695,46 128.649526,46 C124.447968,46 121.223327,45.8203049 118.961997,45.4663601 C117.653092,45.3084463 117,44.5733301 117,43.2664569 L117,3.67364472 C117,2.3286544 117.636765,1.59081559 118.90213,1.47374153 C121.51994,1.15791384 124.662945,1 128.350192,1 C139.956179,1 145.760533,4.82260407 145.760533,12.4705348 L145.760533,13.4207406 C145.760533,15.6015852 145.205405,17.5047193 144.09787,19.1301428 C142.990335,20.7528437 141.422915,21.964424 139.403772,22.7567159 C141.461012,23.4700508 143.074693,24.6789085 144.247537,26.383289 C145.412217,28.0876694 146,30.088819 146,32.3867377 L146,33.3995644 Z" id="Fill-26"></path>
                    <path d="M175,44.8700992 C175,45.3465634 174.802826,45.6215513 174.397524,45.7059535 C172.488772,45.9019845 168.600066,46 162.74236,46 C158.475737,46 155.285354,45.1314739 153.171213,43.383531 C151.057071,41.6410334 150,38.8258107 150,34.9433083 L150,12.053969 C150,8.1714666 151.057071,5.35624395 153.171213,3.61374637 C155.285354,1.86852614 158.475737,1 162.74236,1 C168.003067,1 171.886296,1.11707406 174.397524,1.35666747 C174.802826,1.43290174 175,1.71061229 175,2.18707648 L175,5.16021297 C175,5.6339545 174.778179,5.87354792 174.340015,5.87354792 L162.802607,5.87354792 C159.768321,5.87354792 157.785628,6.30917231 156.851791,7.1804211 C155.909738,8.05166989 155.44145,9.67709342 155.44145,12.053969 L155.44145,20.3172193 L173.803264,20.3172193 C174.123672,20.3172193 174.397524,20.437016 174.638515,20.6766094 C174.876766,20.9134802 175,21.1911907 175,21.509741 L175,23.7668199 C175,24.0826476 174.876766,24.3630808 174.638515,24.6026742 C174.397524,24.8368224 174.123672,24.9566191 173.803264,24.9566191 L155.44145,24.9566191 L155.44145,34.9433083 C155.44145,37.3229066 155.909738,38.9456075 156.851791,39.8195789 C157.785628,40.6908277 159.768321,41.1264521 162.802607,41.1264521 L174.340015,41.1264521 C174.778179,41.1264521 175,41.3660455 175,41.8425097 L175,44.8700992 Z" id="Fill-28"></path>
                    <path d="M181,44.8700992 C181,45.3465634 181.197174,45.6215513 181.602476,45.7059535 C183.511228,45.9019845 187.399934,46 193.25764,46 C197.524263,46 200.711907,45.1314739 202.828787,43.383531 C204.940191,41.6410334 206,38.8258107 206,34.9433083 L206,12.053969 C206,8.1714666 204.940191,5.35624395 202.828787,3.61374637 C200.711907,1.86852614 197.524263,1 193.25764,1 C187.996933,1 184.113704,1.11707406 181.602476,1.35666747 C181.197174,1.43290174 181,1.71061229 181,2.18707648 L181,5.16021297 C181,5.6339545 181.221821,5.87354792 181.659985,5.87354792 L193.197393,5.87354792 C196.231679,5.87354792 198.214372,6.30917231 199.148209,7.1804211 C200.090262,8.05166989 200.55855,9.67709342 200.55855,12.053969 L200.55855,20.3172193 L182.196736,20.3172193 C181.87359,20.3172193 181.602476,20.437016 181.361485,20.6766094 C181.123234,20.9134802 181,21.1911907 181,21.509741 L181,23.7668199 C181,24.0826476 181.123234,24.3630808 181.361485,24.6026742 C181.602476,24.8368224 181.87359,24.9566191 182.196736,24.9566191 L200.55855,24.9566191 L200.55855,34.9433083 C200.55855,37.3229066 200.090262,38.9456075 199.148209,39.8195789 C198.214372,40.6908277 196.231679,41.1264521 193.197393,41.1264521 L181.659985,41.1264521 C181.221821,41.1264521 181,41.3660455 181,41.8425097 L181,44.8700992 Z" id="Fill-30"></path>
                    <path d="M241,4.75554734 C241,5.40181213 240.620486,5.72633136 239.866919,5.72633136 L228.243967,5.72633136 L228.243967,44.7879068 C228.243967,45.112426 228.140215,45.3925666 227.943632,45.6366494 C227.744319,45.8779586 227.48767,46 227.168223,46 L223.889114,46 C223.610622,46 223.364893,45.8779586 223.143738,45.6366494 C222.922582,45.3925666 222.81883,45.112426 222.81883,44.7879068 L222.81883,5.72633136 L211.193148,5.72633136 C210.395896,5.72633136 210,5.40181213 210,4.75554734 L210,2.09005178 C210,1.80991124 210.120134,1.5575074 210.357671,1.33561391 C210.597939,1.11372041 210.873701,1 211.193148,1 L239.866919,1 C240.620486,1 241,1.36335059 241,2.09005178 L241,4.75554734 Z" id="Fill-32"></path>
                    <g id="symbol">
                        <path d="M43.5231442,76.896936 C43.5231442,77.7301058 43.1748108,78.2156617 42.4836733,78.3536037 C39.1496257,78.6956999 32.3820066,78.8722657 22.1780516,78.8722657 C14.749705,78.8722657 9.1984881,77.3493858 5.51887169,74.3008673 C1.83925529,71.2523487 0.000829365079,66.3360953 0.000829365079,59.5438304 L0.000829365079,19.5406457 C0.000829365079,12.7538985 1.83925529,7.83488616 5.51887169,4.78360876 C9.1984881,1.73784904 14.749705,0.212210345 22.1780516,0.212210345 C31.3425357,0.212210345 38.1101548,0.42188221 42.4836733,0.835708258 C43.1748108,0.973650275 43.5231442,1.45920617 43.5231442,2.28961711 L43.5231442,7.48727228 C43.5231442,8.31768322 43.1416362,8.73426811 42.3786204,8.73426811 L22.2803399,8.73426811 C17.005578,8.73426811 13.5526548,9.49570804 11.9215701,11.0185879 C10.2904854,12.5442266 9.47494312,15.3830733 9.47494312,19.5406457 L9.47494312,33.9831748 L41.4414378,33.9831748 C41.9943479,33.9831748 42.4836733,34.1928466 42.8983558,34.6066727 C43.3158029,35.0204987 43.5231442,35.5088135 43.5231442,36.0605815 L43.5231442,40.008482 C43.5231442,40.5657678 43.3158029,41.0485648 42.8983558,41.4651497 C42.4836733,41.8817346 41.9943479,42.0886476 41.4414378,42.0886476 L9.47494312,42.0886476 L9.47494312,59.5438304 C9.47494312,63.7014027 10.2904854,66.5430083 11.9215701,68.0658881 C13.5526548,69.5915268 17.005578,70.3529668 22.2803399,70.3529668 L42.3786204,70.3529668 C43.1416362,70.3529668 43.5231442,70.764034 43.5231442,71.5999626 L43.5231442,76.896936 Z" id="Fill-34"></path>
                        <path d="M51.2148814,76.896936 C51.2148814,77.7301058 51.561352,78.2156617 52.2515434,78.3536037 C55.5650121,78.6956999 62.2964407,78.8722657 72.4485789,78.8722657 C79.8344519,78.8722657 85.358733,77.3493858 89.0159225,74.3008673 C92.6786116,71.2523487 94.5044566,66.3360953 94.5044566,59.5438304 L94.5044566,19.5406457 C94.5044566,12.7538985 92.6786116,7.83488616 89.0159225,4.78360876 C85.358733,1.73784904 79.8344519,0.212210345 72.4485789,0.212210345 C63.3331027,0.212210345 56.6016741,0.42188221 52.2515434,0.835708258 C51.561352,0.973650275 51.2148814,1.45920617 51.2148814,2.28961711 L51.2148814,7.48727228 C51.2148814,8.31768322 51.597099,8.73426811 52.3560345,8.73426811 L72.3440878,8.73426811 C77.5906424,8.73426811 81.0278506,9.49570804 82.6474631,11.0185879 C84.2698254,12.5442266 85.0810065,15.3830733 85.0810065,19.5406457 L85.0810065,33.9831748 L53.2854556,33.9831748 C52.7355023,33.9831748 52.2515434,34.1928466 51.8390784,34.6066727 C51.4211139,35.0204987 51.2148814,35.5088135 51.2148814,36.0605815 L51.2148814,40.008482 C51.2148814,40.5657678 51.4211139,41.0485648 51.8390784,41.4651497 C52.2515434,41.8817346 52.7355023,42.0886476 53.2854556,42.0886476 L85.0810065,42.0886476 L85.0810065,59.5438304 C85.0810065,63.7014027 84.2698254,66.5430083 82.6474631,68.0658881 C81.0278506,69.5915268 77.5906424,70.3529668 72.3440878,70.3529668 L52.3560345,70.3529668 C51.597099,70.3529668 51.2148814,70.764034 51.2148814,71.5999626 L51.2148814,76.896936 Z" id="Fill-37"></path>
                    </g>
                </g>
            </g>
        </g>
    </g>
</svg>