<?xml version="1.0" standalone="no"?>
<!DOCTYPE svg PUBLIC "-//W3C//DTD SVG 20010904//EN"
 "http://www.w3.org/TR/2001/REC-SVG-20010904/DTD/svg10.dtd">
<svg version="1.0" xmlns="http://www.w3.org/2000/svg"
 width="2752.000000pt" height="2752.000000pt" viewBox="0 0 2752.000000 2752.000000"
 preserveAspectRatio="xMidYMid meet">
<metadata>
Created by potrace 1.14, written by Peter Selinger 2001-2017
</metadata>
<g transform="translate(0.000000,2752.000000) scale(0.100000,-0.100000)"
fill="#000000" stroke="none">
<path d="M1729 17656 c-2 -3 -42 -7 -89 -10 -47 -3 -85 -6 -85 -6 0 -3 -31 -8
-92 -14 -35 -4 -68 -8 -75 -11 -7 -2 -30 -6 -50 -9 -32 -5 -96 -18 -148 -31
-8 -2 -40 -11 -70 -20 -30 -9 -64 -18 -75 -20 -11 -3 -38 -12 -60 -21 -22 -9
-49 -20 -60 -24 -24 -8 -221 -106 -250 -123 -166 -100 -338 -271 -430 -429
-61 -105 -105 -206 -145 -333 -24 -79 -35 -124 -55 -225 -12 -60 -25 -151 -32
-225 -10 -101 -11 -4225 -1 -4320 8 -72 14 -118 24 -170 3 -16 8 -46 11 -65 2
-19 13 -69 24 -110 11 -41 22 -83 24 -93 2 -9 7 -22 10 -27 3 -5 8 -19 10 -30
6 -32 76 -190 107 -243 15 -26 28 -52 28 -57 0 -6 5 -10 10 -10 6 0 10 -6 10
-13 0 -7 8 -22 18 -33 9 -10 30 -37 46 -59 48 -64 165 -177 248 -238 43 -31
80 -57 82 -57 2 0 36 -18 74 -40 76 -43 211 -101 306 -132 64 -20 253 -67 296
-73 14 -2 40 -6 58 -9 74 -13 148 -23 267 -33 87 -8 1124 -7 1430 1 313 8 390
12 640 31 87 7 130 32 143 85 8 31 8 566 0 595 -4 16 -17 38 -28 50 -20 20
-29 20 -1043 21 -562 1 -1049 4 -1082 7 -93 9 -168 17 -191 22 -12 3 -39 7
-60 11 -43 7 -46 8 -89 19 -74 19 -154 48 -203 73 -58 30 -151 101 -152 116 0
6 -9 19 -19 30 -38 42 -102 189 -116 268 -3 17 -8 35 -10 39 -3 4 -8 27 -11
50 -3 24 -8 55 -10 69 -14 93 -18 315 -18 1070 l0 855 1445 1 c1356 2 1448 3
1479 19 56 29 91 70 107 125 9 29 9 435 0 471 -10 40 -72 119 -93 119 -8 0
-14 4 -14 8 0 4 -12 9 -27 11 -16 2 -671 4 -1458 4 -1143 1 -1431 3 -1435 14
-8 19 -4 1479 4 1547 4 33 9 75 12 95 3 20 7 50 9 67 2 17 7 37 9 45 3 8 7 25
10 39 17 99 91 251 157 320 47 50 193 134 251 145 12 3 35 9 52 14 53 17 163
37 256 46 30 3 71 8 90 12 19 3 503 7 1075 8 780 1 1046 5 1062 14 44 23 47
41 48 336 1 320 -5 354 -63 377 -15 5 -43 11 -62 13 -19 2 -66 6 -105 9 -94 8
-234 17 -322 20 -40 1 -75 5 -79 9 -4 3 -14 2 -24 -3 -10 -5 -20 -7 -22 -4 -3
2 -56 7 -119 9 -148 7 -1355 16 -1360 11z"/>
<path d="M5657 17654 c-1 -1 -96 -5 -212 -8 -269 -8 -513 -20 -630 -31 -22 -2
-71 -6 -109 -9 -75 -7 -96 -19 -121 -69 -12 -24 -14 -81 -12 -323 l2 -294 27
-26 27 -27 1043 -3 c574 -1 1061 -5 1083 -8 22 -3 65 -8 95 -11 73 -8 233 -41
295 -61 75 -25 175 -79 221 -121 98 -92 173 -256 199 -438 4 -27 9 -59 12 -70
13 -64 17 -256 17 -910 l1 -730 -1440 -1 c-1323 0 -1442 -2 -1470 -17 -50 -27
-74 -53 -95 -99 -17 -38 -20 -66 -20 -260 0 -191 2 -222 19 -261 24 -55 82
-104 134 -113 22 -3 678 -6 1456 -6 l1416 0 -1 -902 c0 -495 -4 -923 -9 -951
-4 -27 -9 -61 -10 -75 -13 -182 -104 -405 -201 -492 -20 -18 -43 -39 -50 -45
-7 -7 -19 -13 -27 -13 -9 0 -17 -3 -19 -7 -9 -21 -172 -82 -262 -99 -142 -26
-155 -28 -301 -40 -49 -4 -541 -7 -1091 -8 l-1002 -1 -21 -25 c-11 -14 -23
-39 -26 -56 -4 -16 -5 -159 -3 -316 l3 -286 35 -31 c19 -17 46 -31 60 -32 14
0 36 -2 50 -4 307 -40 1996 -55 2181 -20 12 2 47 7 78 11 31 3 65 8 76 10 11
3 35 7 54 10 56 9 71 13 79 17 4 3 23 8 42 11 61 10 153 39 314 98 62 23 195
96 279 152 72 49 233 195 272 248 6 7 22 30 38 50 15 20 27 41 27 46 0 6 4 12
9 14 31 11 171 341 196 464 3 16 7 34 9 39 9 30 22 102 31 170 3 28 8 64 11
80 15 108 18 429 18 2215 0 1804 -2 2115 -19 2230 -3 19 -8 53 -10 75 -9 67
-14 99 -19 120 -2 11 -9 39 -14 62 -5 23 -7 44 -4 48 3 3 0 5 -6 5 -7 0 -12 8
-12 19 0 69 -117 332 -205 461 -60 88 -246 280 -271 280 -8 0 -14 4 -14 8 0
14 -144 101 -252 151 -86 40 -232 95 -281 105 -7 2 -19 6 -27 9 -17 6 -120 29
-190 43 -81 15 -127 23 -140 23 -24 0 -113 12 -140 18 -23 6 -1167 13 -1173 7z"/>
<path d="M14628 17525 c-2 -2 -65 -7 -139 -9 -135 -5 -164 -8 -274 -27 -33 -5
-67 -11 -75 -12 -8 -2 -21 -6 -27 -10 -7 -5 -13 -6 -13 -3 0 9 -152 -50 -221
-85 -262 -132 -408 -380 -433 -736 -2 -28 -7 -56 -10 -62 -4 -6 -3 -11 2 -11
5 0 6 -17 2 -39 -4 -22 -4 -45 1 -52 4 -7 5 -17 2 -23 -8 -12 -6 -112 2 -126
3 -5 3 -10 -2 -10 -4 0 -7 -19 -5 -42 1 -24 3 -50 2 -58 -2 -88 -1 -121 5
-130 3 -5 3 -10 -2 -10 -4 0 -7 -42 -5 -92 1 -51 2 -99 2 -105 0 -22 0 -102 0
-115 1 -7 -1 -32 -2 -56 -2 -23 1 -42 5 -42 5 0 5 -4 2 -10 -8 -13 -10 -118
-3 -126 4 -3 3 -18 -1 -32 -4 -15 -4 -39 0 -54 4 -15 4 -29 1 -32 -7 -8 -5
-113 3 -126 3 -5 3 -10 -2 -10 -4 0 -7 -19 -5 -42 1 -24 3 -50 2 -58 -2 -88
-1 -121 5 -130 3 -5 3 -10 -2 -10 -4 0 -7 -19 -5 -42 1 -24 3 -50 2 -58 -2
-88 -1 -121 5 -130 3 -5 3 -10 -2 -10 -8 0 -7 -114 1 -137 3 -7 2 -13 -2 -13
-9 0 -7 -63 2 -78 4 -7 4 -12 -1 -12 -4 0 -7 -19 -5 -42 4 -56 4 -54 0 -116
-2 -28 -1 -52 2 -52 3 0 5 -28 5 -63 0 -34 3 -84 7 -112 5 -27 10 -63 13 -80
5 -35 10 -57 24 -103 5 -18 11 -36 12 -40 1 -4 5 -17 10 -30 5 -13 9 -25 9
-28 0 -15 50 -108 86 -159 73 -104 162 -179 291 -243 66 -34 173 -74 173 -65
0 3 6 0 14 -6 8 -6 18 -11 22 -10 5 1 11 0 14 -1 62 -24 323 -52 470 -50 59 0
160 0 185 -1 36 -2 589 11 675 16 154 8 192 13 208 28 18 18 32 81 22 98 -5 7
-4 22 0 35 5 12 6 25 3 28 -8 8 -9 76 -1 76 4 0 3 13 -2 30 -5 18 -5 32 1 36
5 3 7 9 5 13 -3 4 -8 23 -11 42 -3 18 -11 37 -18 41 -7 4 -246 8 -532 8 -483
0 -724 5 -785 14 -86 14 -107 19 -122 27 -10 5 -18 7 -18 3 0 -3 -7 -1 -15 6
-8 7 -15 10 -15 6 0 -10 -72 30 -107 59 -55 47 -109 162 -119 253 -2 20 -6 48
-9 62 -4 19 -9 960 -6 1050 1 14 97 15 835 15 687 0 838 3 859 14 34 18 61 76
58 126 -1 22 -1 46 -1 53 0 6 0 19 0 27 0 8 0 22 0 30 0 8 0 21 0 28 2 55 -10
91 -39 120 l-31 32 -840 0 -840 0 -1 25 c-3 85 2 856 5 878 3 15 8 47 11 72 9
63 40 147 71 191 48 70 129 116 242 139 26 5 61 13 77 16 17 4 309 9 650 11
341 2 635 6 653 8 17 3 33 11 33 18 4 45 9 70 13 74 3 3 1 16 -4 29 -5 13 -6
26 -1 28 4 3 5 26 1 51 -4 24 -5 47 -2 50 8 8 7 75 -1 75 -5 0 -5 5 -2 11 13
20 -5 57 -32 68 -26 10 -117 19 -273 26 -36 2 -213 6 -394 10 -181 3 -333 8
-336 10 -4 3 -9 2 -12 0z"/>
<path d="M17508 17525 c-2 -3 -184 -7 -404 -10 -219 -2 -433 -7 -474 -10 -320
-20 -309 -16 -314 -125 0 -22 2 -40 6 -40 4 0 5 -6 3 -12 -9 -22 -11 -108 -4
-108 4 0 4 -13 -1 -30 -5 -16 -6 -30 -2 -30 4 0 7 -16 8 -36 0 -20 7 -40 15
-45 8 -5 256 -9 564 -9 547 0 678 -3 745 -14 19 -3 51 -8 70 -11 165 -24 283
-118 316 -254 2 -9 8 -34 13 -56 6 -22 13 -65 16 -95 5 -45 9 -541 6 -835 l-1
-70 -822 0 c-453 0 -836 -3 -853 -8 -30 -9 -65 -46 -69 -72 -1 -8 -5 -17 -8
-20 -3 -4 -2 -20 2 -36 5 -16 5 -29 0 -29 -4 0 -4 -15 0 -34 4 -19 4 -40 -1
-47 -4 -7 -4 -20 1 -29 5 -9 5 -22 0 -30 -5 -8 -5 -19 0 -25 4 -5 9 -14 11
-20 6 -32 25 -55 53 -67 24 -10 204 -13 859 -13 l827 0 1 -60 c2 -193 -2 -975
-5 -1000 -28 -234 -95 -335 -259 -389 -27 -9 -65 -19 -85 -22 -21 -3 -50 -8
-67 -11 -16 -3 -316 -7 -665 -10 -707 -5 -676 -2 -668 -70 2 -18 2 -33 -2 -33
-6 0 -3 -98 4 -116 2 -6 0 -17 -4 -24 -5 -8 -4 -22 1 -31 6 -12 5 -20 -1 -24
-6 -4 -8 -10 -5 -15 3 -5 7 -25 9 -45 5 -64 22 -70 221 -80 83 -4 561 -16 630
-16 6 0 47 1 91 2 45 1 87 -1 92 -5 6 -3 13 -2 16 3 4 6 18 6 35 1 16 -4 31
-6 33 -4 2 2 51 6 108 9 58 3 116 8 130 10 140 19 235 40 320 72 81 30 190 85
190 95 0 5 6 8 13 8 19 0 148 121 182 171 17 24 32 46 35 49 8 8 42 85 39 86
-2 0 1 7 7 15 12 15 51 128 59 170 3 13 7 35 10 49 12 61 17 101 21 180 4 72
5 144 2 169 0 3 1 11 2 16 2 12 2 128 -1 141 -1 5 0 14 1 19 2 12 2 128 -1
141 -1 5 0 14 1 19 2 12 2 128 -1 141 -1 5 0 14 1 19 2 12 2 128 -1 141 -1 5
0 14 1 19 2 12 2 128 -1 141 -1 5 -1 14 1 19 1 6 1 57 0 115 -1 123 -1 122 0
178 0 23 -2 47 -5 52 -4 6 -3 10 2 10 4 0 7 24 5 52 -1 29 -3 60 -3 68 0 8 1
34 1 58 0 23 -2 47 -5 52 -4 6 -3 10 2 10 4 0 7 24 5 52 -1 29 -3 60 -3 68 0
8 1 34 1 58 0 23 -2 47 -5 52 -4 6 -3 10 2 10 4 0 7 24 5 52 -3 61 -3 64 -2
123 1 24 -1 49 -5 55 -3 5 -3 10 2 10 4 0 7 24 5 52 -4 71 -2 140 4 150 3 4 2
8 -3 8 -4 0 -9 40 -10 88 -2 49 -9 120 -18 158 -8 38 -18 80 -21 94 -14 72
-106 270 -124 270 -5 0 -11 8 -14 18 -9 27 -103 118 -163 158 -112 74 -264
135 -398 158 -16 3 -41 8 -55 11 -25 5 -113 14 -186 20 -23 1 -46 5 -52 8 -5
4 -11 4 -14 2z"/>
<path d="M19034 17521 c-2 -2 -20 -4 -40 -3 -40 2 -94 -25 -94 -45 0 -7 -5
-13 -12 -13 -6 0 -9 -3 -6 -6 4 -3 2 -19 -2 -35 -5 -17 -5 -31 1 -34 5 -4 5
-13 0 -24 -5 -9 -6 -23 -2 -30 5 -7 5 -27 1 -45 -4 -18 -3 -42 1 -54 5 -12 4
-22 -1 -22 -5 0 -5 -13 0 -30 5 -17 8 -31 8 -33 -4 -11 16 -47 30 -53 9 -4
253 -9 542 -10 289 -1 530 -2 535 -3 7 -1 10 -614 10 -1818 0 -1960 -3 -1852
52 -1888 25 -17 32 -18 93 -13 19 2 45 0 57 -4 12 -4 25 -3 28 3 4 5 11 6 17
3 10 -7 94 -7 138 0 14 2 30 4 37 5 14 1 56 68 49 79 -2 4 -1 14 4 22 4 7 4
24 -1 37 -5 12 -5 23 -1 23 7 0 8 37 2 65 -1 6 -1 12 0 15 6 16 5 62 -2 66 -5
3 -6 10 -2 15 10 16 11 69 1 69 -4 0 -5 5 -2 11 11 16 12 69 2 69 -4 0 -5 5
-2 11 11 16 12 69 2 69 -4 0 -5 5 -2 11 11 16 12 69 2 69 -4 0 -5 5 -2 11 11
16 12 69 2 69 -4 0 -5 5 -2 11 11 16 12 69 2 69 -4 0 -5 5 -2 11 11 16 12 69
2 69 -4 0 -5 5 -2 11 11 16 12 69 2 69 -4 0 -5 5 -2 11 11 16 12 69 2 69 -4 0
-5 5 -2 11 11 16 12 69 2 69 -4 0 -5 5 -2 11 11 16 12 69 2 69 -4 0 -5 5 -2
11 11 16 12 69 2 69 -4 0 -5 5 -2 11 11 16 12 69 2 69 -4 0 -5 5 -2 11 11 16
12 69 2 69 -4 0 -5 5 -2 11 11 16 12 69 2 69 -4 0 -5 5 -2 11 11 16 12 69 2
69 -4 0 -5 5 -2 11 11 16 12 69 2 69 -4 0 -5 5 -2 11 11 16 12 69 2 69 -4 0
-5 5 -2 11 11 16 12 69 2 69 -4 0 -5 5 -2 11 11 16 12 69 2 69 -4 0 -5 5 -2
11 11 16 12 69 2 69 -4 0 -5 5 -2 11 11 16 12 69 2 69 -4 0 -5 5 -2 11 11 16
12 69 2 69 -4 0 -5 5 -2 11 11 16 12 69 2 69 -4 0 -5 5 -2 11 11 16 12 69 2
69 -4 0 -5 5 -2 11 11 16 12 69 2 69 -4 0 -5 5 -2 11 11 16 12 69 2 69 -4 0
-5 5 -2 11 11 16 12 69 2 69 -4 0 -5 5 -2 11 11 16 12 69 2 69 -4 0 -5 5 -2
11 11 16 12 69 2 69 -4 0 -5 5 -2 11 11 16 12 69 2 69 -4 0 -5 5 -2 11 11 16
12 69 2 69 -4 0 -5 5 -2 11 11 16 12 69 2 69 -4 0 -5 5 -2 11 11 16 12 69 2
69 -4 0 -5 5 -2 11 11 16 12 69 2 69 -4 0 -5 5 -2 11 11 16 12 69 2 69 -4 0
-5 5 -2 11 11 16 12 69 2 69 -4 0 -5 5 -2 11 11 16 12 69 2 69 -4 0 -5 5 -2
11 11 16 12 69 2 69 -4 0 -5 5 -2 11 11 16 12 69 3 69 -5 0 -5 8 -1 18 10 21
10 53 0 70 -5 6 -4 12 0 12 5 0 8 19 6 42 -1 23 2 47 7 53 5 7 174 10 522 9
282 0 525 3 540 8 24 8 52 51 47 74 -1 5 0 14 1 19 4 23 0 157 -5 166 -4 5 -2
9 3 9 8 0 5 36 -6 83 -1 4 -2 13 -2 20 -1 28 -29 48 -77 54 -79 8 -553 9 -553
0 0 -5 -5 -5 -10 -2 -6 4 -95 6 -198 5 -103 0 -198 -1 -212 0 -134 5 -540 3
-540 -3 0 -5 -5 -5 -10 -2 -6 4 -95 6 -198 5 -103 0 -198 -1 -212 0 -86 4
-542 4 -546 1z"/>
<path d="M11208 17515 c-2 -1 -57 -5 -123 -9 -127 -7 -198 -12 -280 -21 -27
-3 -63 -7 -80 -9 -78 -7 -136 -55 -155 -127 -9 -33 -15 -164 -10 -194 2 -6 2
-12 1 -15 -7 -17 -5 -110 2 -110 5 0 6 -4 3 -9 -5 -7 -6 -52 -5 -151 0 -8 -1
-42 -1 -75 -1 -113 0 -263 1 -337 0 -7 -1 -76 -1 -153 -1 -77 0 -144 1 -150 1
-5 1 -14 0 -19 -2 -7 -2 -59 0 -106 0 -8 0 -35 0 -60 0 -25 0 -52 0 -60 0 -8
-1 -42 -1 -75 -1 -33 -1 -94 -1 -135 1 -65 1 -144 1 -207 0 -10 0 -70 -1 -133
0 -64 0 -120 1 -125 1 -6 2 -12 1 -15 -7 -17 -5 -110 2 -110 5 0 6 -4 3 -9 -5
-7 -6 -52 -5 -151 0 -8 -1 -42 -1 -75 -1 -113 0 -263 1 -337 0 -7 -1 -76 -1
-153 -1 -77 0 -144 1 -150 1 -5 1 -14 0 -19 -2 -7 -2 -59 0 -106 0 -8 0 -35 0
-60 0 -25 0 -52 0 -60 0 -8 -1 -42 -1 -75 -1 -33 -1 -94 -1 -135 1 -41 1 -100
1 -130 -1 -50 1 -69 13 -123 2 -10 11 -27 20 -38 9 -10 17 -23 17 -27 0 -25
233 -84 261 -67 5 4 9 3 9 -2 0 -4 17 -8 38 -9 20 0 82 -4 137 -8 55 -4 159
-10 230 -12 150 -5 131 -5 215 -5 36 1 72 0 80 0 30 -2 316 11 340 16 14 2 48
7 75 10 44 5 80 11 190 31 53 9 209 54 242 69 17 8 33 15 36 15 10 0 152 70
182 90 17 11 37 23 45 27 8 4 20 12 26 17 6 6 30 26 55 45 24 19 67 61 94 93
28 32 55 64 60 71 67 78 157 295 169 408 2 14 5 30 8 35 6 12 12 83 12 161 1
35 3 63 6 63 3 0 4 17 2 38 -3 35 -3 45 -1 75 1 33 -10 169 -16 188 -4 11 -8
31 -9 42 -2 12 -11 49 -20 82 -10 33 -18 61 -18 62 3 12 -97 187 -132 231 -89
115 -220 215 -344 262 l-43 16 48 24 c146 73 279 185 356 301 38 57 104 193
110 226 2 10 9 36 15 58 21 76 24 100 27 270 4 204 -7 296 -50 435 -13 40 -74
166 -100 205 -113 171 -364 337 -600 400 -16 5 -34 10 -40 12 -5 1 -64 14
-130 27 -109 22 -148 28 -270 43 -43 5 -691 13 -697 8z m637 -429 c66 -5 137
-14 175 -21 14 -3 41 -8 60 -11 72 -12 208 -58 282 -95 32 -16 82 -53 111 -82
50 -50 112 -155 122 -206 2 -12 6 -30 9 -39 16 -57 22 -231 12 -363 -8 -99
-45 -208 -97 -284 -38 -56 -130 -145 -149 -145 -5 0 -10 -4 -10 -10 0 -5 -9
-10 -20 -10 -11 0 -20 -5 -20 -11 0 -5 -4 -8 -9 -4 -5 3 -12 1 -15 -4 -6 -10
-83 -38 -125 -46 -12 -2 -30 -6 -39 -9 -76 -23 -178 -27 -649 -27 -233 -1
-427 0 -431 0 -13 1 -10 1361 2 1362 6 0 81 3 166 5 85 3 156 6 157 8 4 3 407
-3 468 -8z m190 -1780 c17 -3 46 -8 65 -10 65 -9 194 -55 255 -91 133 -80 227
-208 259 -353 3 -13 8 -32 11 -42 10 -31 17 -147 17 -272 -1 -114 -21 -260
-44 -316 -6 -15 -12 -30 -12 -33 -5 -31 -63 -117 -116 -169 -104 -105 -260
-172 -490 -210 -151 -25 -423 -31 -690 -16 -223 13 -235 13 -241 15 -4 1 -5
1504 0 1507 7 4 964 -6 986 -10z"/>
<path d="M15104 12879 c-47 -8 -62 -29 -62 -84 0 -24 -3 -49 -6 -54 -4 -5 -2
-12 3 -15 5 -3 5 -21 1 -41 -4 -19 -4 -37 0 -40 4 -3 4 -21 0 -40 -4 -20 -4
-38 1 -41 5 -3 6 -10 3 -16 -6 -9 -9 -189 -4 -213 1 -5 2 -13 0 -17 -1 -5 -1
-28 -1 -53 0 -25 0 -48 1 -52 2 -5 2 -11 1 -15 -1 -7 -1 -80 0 -108 0 -8 -1
-39 -3 -68 -2 -28 0 -52 3 -52 4 0 3 -17 -1 -38 -3 -20 -3 -50 1 -66 5 -16 4
-36 0 -44 -5 -9 -5 -28 -1 -44 5 -15 5 -30 0 -33 -4 -3 -4 -21 0 -40 4 -19 4
-37 0 -40 -4 -3 -4 -20 0 -39 4 -19 5 -37 2 -40 -3 -3 -4 -52 -3 -108 2 -120
3 -109 -1 -176 -2 -28 0 -52 3 -52 4 0 4 -15 0 -32 -4 -18 -4 -47 0 -65 3 -18
4 -35 1 -37 -6 -7 -5 -213 2 -224 3 -5 2 -23 -3 -39 -5 -17 -5 -36 -1 -43 5
-7 5 -23 0 -34 -4 -12 -4 -30 0 -41 4 -11 4 -29 0 -40 -4 -11 -4 -29 0 -40 4
-11 4 -29 0 -39 -11 -31 5 -108 26 -123 12 -9 37 -13 67 -11 26 2 47 -1 47 -5
0 -4 9 -3 19 3 13 6 22 7 26 0 7 -12 34 -2 61 22 l22 19 0 677 c0 372 1 689 1
703 1 16 8 29 19 32 9 3 44 15 77 27 33 11 73 23 90 26 16 2 37 7 46 10 42 12
189 18 256 10 85 -10 169 -71 212 -153 6 -12 18 -52 27 -90 13 -58 16 -153 16
-655 l0 -588 30 -25 c16 -14 35 -22 41 -18 13 8 75 9 83 1 3 -4 18 -2 34 2 16
4 31 6 34 3 9 -10 48 35 46 53 -1 11 -1 21 0 24 5 15 4 80 -2 80 -4 0 -3 14 2
30 5 17 5 30 0 30 -5 0 -5 13 0 30 5 17 5 30 0 30 -5 0 -5 13 0 30 5 17 5 30
1 30 -4 0 -4 27 -1 60 3 33 3 60 -1 60 -4 0 -4 14 1 30 5 17 6 30 2 30 -8 0
-7 68 1 76 3 3 2 17 -3 30 -6 14 -6 24 0 24 5 0 5 12 0 30 -5 17 -5 30 0 30 5
0 5 13 0 30 -5 17 -5 30 0 30 5 0 5 13 0 30 -5 17 -5 30 0 30 5 0 5 12 1 28
-5 15 -5 37 0 49 5 13 4 25 -1 28 -6 4 -7 13 -1 24 5 9 6 23 1 30 -4 8 -5 25
-1 40 5 14 4 38 0 54 -4 16 -3 27 2 27 6 0 7 4 4 10 -3 5 -8 43 -9 82 -7 155
-54 304 -122 388 -78 96 -182 156 -304 178 -74 12 -239 6 -350 -13 -29 -5
-165 -48 -220 -69 -13 -6 -15 35 -14 331 1 226 -2 344 -10 355 -17 28 -108 40
-192 27z"/>
<path d="M20408 12885 c-2 -2 -52 -5 -111 -6 -124 -1 -137 -8 -138 -72 -1 -86
-1 -222 1 -232 1 -5 2 -12 1 -15 -6 -15 -5 -100 0 -100 4 0 3 -15 -1 -34 -4
-19 -4 -40 1 -47 4 -7 5 -17 2 -22 -4 -8 -7 -400 -3 -422 1 -5 2 -12 1 -15 -6
-15 -5 -100 0 -100 4 0 3 -15 -1 -34 -4 -19 -4 -40 1 -47 4 -7 5 -17 2 -22 -4
-8 -7 -400 -3 -422 1 -5 2 -12 1 -15 -6 -15 -5 -100 0 -100 4 0 3 -15 -1 -34
-4 -19 -4 -40 1 -47 4 -7 5 -17 2 -22 -7 -12 -6 -414 1 -426 4 -5 2 -12 -4
-16 -6 -4 -8 -10 -6 -14 3 -4 6 -28 7 -53 2 -25 7 -52 13 -59 16 -21 64 -40
71 -29 3 5 16 6 28 2 25 -9 67 -8 91 1 9 4 16 2 16 -4 0 -6 5 -7 12 -3 7 4 22
8 35 9 33 1 47 20 48 65 0 22 2 40 5 40 7 0 5 54 -2 66 -3 5 -2 18 2 29 4 11
4 30 -1 41 -4 12 -5 25 -2 28 9 9 9 66 1 66 -4 0 -4 10 1 23 5 12 5 32 0 45
-5 12 -5 22 -1 22 8 0 8 52 0 66 -3 5 -2 18 2 29 4 11 4 30 -1 41 -4 12 -5 25
-2 28 9 9 9 66 1 66 -4 0 -4 10 1 23 5 12 5 32 0 45 -5 12 -5 22 -1 22 8 0 8
52 0 66 -3 5 -2 18 2 29 4 11 4 30 -1 41 -4 12 -5 25 -2 28 9 9 9 66 1 66 -4
0 -4 10 1 23 5 12 5 32 0 45 -5 12 -5 22 -1 22 8 0 8 52 0 66 -3 5 -2 18 2 29
4 11 4 30 -1 41 -4 12 -5 25 -2 28 9 9 9 66 1 66 -4 0 -4 10 1 23 5 12 5 31 1
42 -4 11 -5 24 -2 29 5 9 7 120 2 141 -1 6 -1 15 0 20 2 14 3 128 0 140 -1 6
-1 15 0 20 2 14 3 128 0 140 -1 6 -1 15 0 20 2 14 3 128 0 140 -1 6 -1 15 0
20 2 14 3 128 0 140 -1 6 -2 12 -1 15 7 17 5 130 -2 130 -5 0 -5 5 -2 10 11
18 -6 50 -34 65 -16 8 -30 12 -33 10z"/>
<path d="M24152 12882 c-123 -3 -147 -14 -151 -69 -6 -89 -5 -223 2 -223 5 0
6 -4 2 -10 -12 -19 7 -59 33 -69 24 -9 109 -16 137 -11 6 1 30 1 55 1 25 -1
53 5 63 13 20 15 39 116 26 137 -4 7 -5 18 -2 24 7 20 9 125 1 125 -3 0 -4 9
-1 20 5 20 -8 38 -42 55 -11 6 -67 9 -123 7z"/>
<path d="M10708 12725 c-3 -3 -29 -6 -58 -7 -63 0 -91 -22 -89 -71 1 -18 1
-36 -1 -42 -7 -27 2 -103 13 -119 13 -17 35 -19 330 -19 l317 0 1 -31 c0 -17
1 -55 2 -83 1 -29 -2 -53 -6 -53 -5 0 -5 -5 -1 -11 9 -16 11 -109 1 -109 -5 0
-5 -5 -1 -11 9 -16 11 -109 1 -109 -5 0 -5 -5 -1 -11 9 -16 11 -109 1 -109 -5
0 -5 -5 -2 -11 10 -15 12 -589 2 -589 -5 0 -5 -5 -1 -11 9 -16 11 -109 1 -109
-5 0 -5 -5 -1 -11 9 -16 11 -109 1 -109 -5 0 -5 -5 -1 -11 9 -16 11 -109 1
-109 -5 0 -5 -5 -2 -11 10 -15 11 -229 2 -229 -5 0 -5 -5 -1 -11 9 -16 11
-109 1 -109 -5 0 -5 -5 -2 -10 10 -16 11 -190 2 -190 -5 0 -6 -4 -3 -8 3 -5 7
-21 10 -37 6 -35 18 -48 48 -51 13 -1 23 -3 23 -4 0 -6 108 -4 111 2 3 4 11 5
19 1 29 -11 63 6 69 35 4 15 7 496 8 1068 l1 1041 281 1 c382 1 354 -1 366 21
11 22 13 38 10 129 -3 96 -14 105 -131 103 -107 -2 -106 -2 -216 -1 -46 1 -87
-2 -93 -5 -5 -3 -10 -1 -10 5 0 6 -4 9 -10 5 -5 -3 -42 -5 -82 -5 -40 1 -81 1
-90 1 -10 0 -48 0 -85 0 -38 1 -86 0 -108 -1 -22 -2 -49 -2 -60 -2 -89 4 -187
2 -195 -3 -5 -3 -10 -1 -10 5 0 6 -4 9 -9 5 -8 -4 -60 -6 -121 -4 -8 0 -55 0
-105 -1 -49 -1 -97 1 -106 5 -8 3 -18 3 -21 0z"/>
<path d="M12798 12245 c-2 -3 -33 -7 -69 -11 -70 -6 -103 -10 -106 -14 -2 -1
-6 -3 -10 -4 -5 -1 -23 -6 -41 -10 -84 -20 -204 -105 -275 -198 -28 -36 -95
-179 -102 -217 -3 -19 -8 -37 -10 -40 -6 -10 -17 -91 -21 -151 -3 -46 -3 -97
-3 -240 0 -8 -1 -46 -1 -85 -2 -161 12 -275 47 -380 10 -27 18 -52 18 -55 8
-31 75 -141 103 -169 107 -108 261 -177 419 -187 42 -2 80 -7 85 -10 4 -3 8
-2 8 3 0 4 37 8 83 8 179 1 422 39 454 70 24 25 24 173 -1 191 -10 7 -25 11
-34 9 -10 -1 -46 -6 -82 -10 -36 -4 -74 -9 -85 -12 -11 -2 -113 -6 -227 -8
-160 -3 -219 0 -263 11 -63 17 -119 49 -160 91 -27 28 -72 113 -80 152 -3 12
-7 31 -10 44 -15 65 -26 218 -18 242 2 7 176 10 498 9 425 -1 496 1 507 13 12
15 20 38 19 61 -1 20 -2 64 -1 110 1 120 -11 246 -29 310 -5 17 -7 32 -3 32 3
0 1 5 -6 12 -7 7 -12 18 -12 25 0 7 -10 35 -22 61 -74 160 -211 281 -363 318
-52 13 -59 14 -122 18 -34 2 -66 6 -71 10 -5 3 -11 3 -14 1z m163 -271 c92
-33 172 -127 194 -229 17 -80 26 -142 22 -162 -2 -13 -1 -23 2 -23 4 0 5 -17
3 -39 l-4 -38 -381 1 -382 1 0 40 c-1 22 3 65 7 95 5 30 11 69 13 87 6 51 55
144 103 195 24 26 48 45 53 42 5 -3 9 -1 9 5 0 8 63 33 115 44 48 10 195 -1
246 -19z"/>
<path d="M14279 12245 c-3 -2 -39 -6 -81 -9 -209 -14 -377 -114 -483 -285 -22
-36 -39 -66 -38 -68 1 -1 -7 -24 -18 -50 -12 -27 -23 -57 -25 -68 -26 -115
-37 -219 -35 -315 1 -30 2 -62 1 -70 -5 -299 25 -463 112 -606 112 -182 285
-283 499 -289 42 -1 81 -5 87 -8 5 -4 12 -4 15 -1 3 4 41 8 84 9 43 2 98 6
123 9 25 4 59 9 75 11 100 14 129 33 123 77 -3 16 -1 28 3 28 4 0 4 14 -1 30
-5 17 -5 30 0 30 15 0 -11 60 -30 70 -9 5 -19 8 -21 6 -22 -21 -473 -29 -528
-10 -89 30 -138 69 -185 144 -61 98 -82 223 -80 490 1 229 7 291 39 384 43
126 123 202 248 235 55 14 491 2 518 -15 11 -6 41 34 36 48 -2 7 0 21 4 30 6
10 5 19 -1 23 -7 4 -7 12 0 24 5 10 7 21 3 24 -3 4 -7 17 -8 29 -1 13 -3 26
-4 30 -2 10 -38 21 -96 31 -84 14 -138 20 -222 22 -50 1 -95 5 -101 9 -5 3
-11 4 -13 1z"/>
<path d="M17548 12245 c-2 -2 -31 -7 -64 -9 -32 -3 -70 -8 -84 -10 -14 -3 -38
-9 -55 -12 -16 -3 -36 -11 -42 -16 -7 -6 -13 -8 -13 -5 0 8 -105 -36 -166 -68
l-49 -26 -3 40 c-5 62 -35 81 -131 80 -96 -1 -119 -7 -132 -31 -11 -21 -15
-1617 -3 -1662 6 -25 64 -68 64 -47 0 6 11 6 29 1 16 -4 32 -6 34 -3 3 2 26 5
50 5 89 0 82 -58 84 675 1 356 2 665 3 685 0 36 3 39 58 64 254 117 490 122
595 13 32 -34 63 -97 71 -144 2 -16 5 -30 6 -30 8 0 10 -125 10 -625 1 -367 5
-585 11 -601 12 -31 67 -50 111 -38 16 4 30 3 33 -1 3 -5 16 -6 28 -1 12 4 27
6 34 4 26 -9 51 30 51 79 0 26 3 52 6 57 4 5 2 12 -4 16 -6 4 -8 11 -4 16 7
13 9 167 2 175 -3 3 -3 17 1 32 4 15 4 44 1 64 -4 21 -4 38 0 38 4 0 4 19 0
43 -3 23 -3 57 1 75 4 18 3 35 -2 38 -5 3 -7 10 -3 15 5 8 5 46 3 179 0 8 1
39 3 68 2 28 1 52 -2 52 -4 0 -3 90 2 145 3 43 -17 220 -32 280 -19 74 -52
155 -73 182 -104 131 -203 186 -351 197 -30 3 -59 7 -64 10 -5 3 -11 3 -14 1z"/>
<path d="M19048 12245 c-3 -3 -38 -7 -79 -9 -148 -9 -271 -64 -371 -166 -134
-138 -199 -340 -198 -615 1 -38 1 -79 0 -90 -2 -176 9 -320 34 -415 51 -193
163 -337 327 -416 123 -60 357 -69 504 -19 44 14 82 29 85 33 3 4 19 14 35 22
62 31 158 140 202 230 77 159 92 256 94 590 1 317 -45 494 -168 645 -89 110
-246 191 -384 199 -31 2 -61 6 -66 9 -6 4 -12 4 -15 2z m158 -279 c31 -14 74
-44 95 -66 39 -40 86 -124 94 -167 2 -13 6 -26 9 -31 18 -30 31 -502 15 -587
-4 -22 -9 -55 -12 -72 -18 -113 -98 -237 -182 -281 -94 -48 -255 -52 -353 -7
-103 47 -174 148 -198 280 -2 11 -7 38 -12 60 -10 49 -8 494 3 550 11 59 13
70 15 70 1 0 3 8 5 18 2 10 7 26 11 35 4 9 8 19 8 22 11 43 83 127 134 157 66
39 125 52 224 48 68 -2 99 -9 144 -29z"/>
<path d="M21438 12244 c-3 -3 -36 -7 -74 -9 -235 -13 -418 -156 -507 -395 -13
-36 -27 -81 -31 -100 -3 -19 -8 -46 -11 -60 -5 -22 -11 -104 -18 -237 -2 -24
1 -43 6 -43 4 0 5 -5 2 -10 -20 -32 1 -351 26 -419 6 -14 10 -27 9 -29 -5 -8
15 -68 37 -114 92 -193 234 -305 428 -337 79 -14 245 -7 321 12 176 43 324
182 394 369 11 31 23 67 26 80 12 57 16 76 23 120 5 26 8 75 7 108 -1 33 1 60
4 60 7 0 4 125 -3 145 -4 8 -3 15 1 15 9 0 8 58 -1 66 -3 4 -2 14 3 24 5 10 7
19 5 22 -3 2 -7 33 -10 69 -12 143 -30 220 -77 319 -33 70 -98 159 -144 200
-38 33 -131 90 -147 90 -7 0 -17 4 -22 8 -15 13 -104 32 -167 36 -31 2 -61 7
-66 10 -5 3 -12 3 -14 0z m133 -266 c5 -7 9 -10 9 -5 0 16 84 -36 124 -77 55
-57 102 -166 111 -256 2 -19 4 -35 5 -35 1 0 3 -101 4 -225 2 -179 -1 -243
-15 -315 -38 -195 -117 -293 -273 -334 -49 -13 -181 -8 -232 9 -115 37 -196
139 -231 290 -17 76 -25 504 -10 595 13 80 20 111 34 138 7 15 11 27 8 27 -8
0 23 47 63 98 35 44 85 75 156 97 55 16 236 12 247 -7z"/>
<path d="M23005 12242 c-2 -2 -34 -5 -72 -7 -84 -4 -192 -30 -258 -62 -56 -28
-161 -132 -186 -184 -32 -64 -48 -105 -53 -129 -2 -14 -9 -45 -14 -70 -17 -88
-5 -270 22 -345 5 -11 13 -33 19 -50 6 -16 13 -32 16 -35 3 -3 11 -14 17 -25
6 -11 17 -30 24 -42 13 -20 12 -24 -13 -43 -31 -24 -67 -90 -72 -129 -5 -37
-6 -143 -2 -163 2 -10 6 -21 10 -24 4 -4 7 -14 7 -22 0 -24 62 -100 92 -113
l28 -11 -45 -53 c-25 -29 -45 -57 -45 -64 0 -6 -3 -11 -7 -11 -19 0 -65 -149
-68 -222 -2 -25 -5 -51 -9 -56 -3 -6 -2 -13 4 -17 7 -4 7 -12 0 -25 -7 -13 -7
-21 0 -25 6 -4 8 -10 5 -15 -4 -7 1 -42 19 -126 15 -73 92 -177 168 -226 129
-84 239 -108 468 -103 80 2 156 6 170 10 14 3 35 8 47 11 12 2 35 9 50 15 16
6 29 10 31 9 4 -2 95 42 111 55 17 13 93 89 106 107 45 61 67 141 71 265 4
126 -10 184 -70 275 -62 95 -202 168 -491 253 -138 41 -224 66 -295 87 -108
32 -149 59 -151 100 -1 10 -2 24 -3 31 -3 15 22 66 40 84 17 17 24 17 97 -8
92 -31 109 -33 267 -32 225 1 349 43 457 156 35 36 88 117 76 117 -3 0 -1 6 5
13 36 44 57 254 39 397 -7 56 -32 132 -58 173 -10 18 -19 35 -19 39 0 3 19 9
43 13 23 4 54 13 68 21 26 13 29 20 28 72 0 15 0 36 1 47 0 37 -21 71 -50 82
-17 6 -32 7 -35 3 -3 -5 -12 -7 -20 -4 -19 8 -105 11 -105 4 0 -5 -55 -3 -103
3 -15 3 -30 1 -33 -4 -2 -5 -15 -5 -27 -1 -20 6 -49 7 -69 2 -19 -4 -79 -3
-84 3 -3 3 -16 2 -29 -3 -13 -5 -26 -6 -29 -3 -6 6 -85 10 -91 5z m135 -235
c164 -35 241 -137 245 -326 2 -95 -18 -211 -37 -211 -5 0 -7 -4 -4 -8 6 -10
-41 -62 -76 -85 -103 -65 -352 -72 -469 -12 -60 31 -120 106 -136 168 -11 46
-10 221 3 263 38 125 119 196 242 211 26 3 48 6 49 7 4 3 165 -3 183 -7z
m-297 -1326 c25 -11 47 -17 50 -15 3 3 19 -2 36 -10 17 -9 34 -15 38 -14 9 2
123 -31 138 -40 6 -4 16 -8 23 -9 21 -5 36 -10 52 -16 53 -22 76 -30 83 -29 4
1 7 -3 7 -10 0 -6 3 -9 6 -5 13 13 95 -55 115 -96 18 -35 21 -53 16 -117 -11
-171 -71 -229 -262 -256 -75 -10 -221 -5 -285 10 -8 2 -28 7 -45 11 -70 16
-156 102 -170 170 -12 58 -11 181 3 240 14 67 50 134 94 177 34 33 42 34 101
9z"/>
<path d="M25427 12244 c-3 -3 -32 -8 -64 -10 -70 -4 -80 -6 -162 -34 -237 -80
-381 -305 -397 -620 -3 -58 -5 -114 -4 -125 1 -11 1 -27 1 -35 -3 -81 -1 -141
3 -149 4 -5 2 -12 -4 -16 -6 -4 -8 -10 -5 -15 3 -5 8 -53 10 -107 11 -251 113
-454 281 -556 98 -60 195 -88 325 -93 48 -2 91 -4 95 -5 5 -1 11 -1 14 0 3 1
45 4 95 6 79 4 201 18 262 29 12 3 42 8 67 11 74 11 87 30 89 124 1 49 -3 85
-10 92 -16 16 -51 15 -213 -7 -19 -3 -128 -6 -242 -8 -167 -3 -216 -1 -255 12
-173 56 -249 191 -258 460 -1 47 2 72 9 73 6 0 229 0 495 1 458 1 485 2 502
19 18 18 24 61 20 139 -1 14 -3 72 -6 130 -6 161 -21 230 -73 350 -38 87 -144
209 -208 242 -16 8 -38 19 -49 25 -43 23 -74 34 -145 50 -8 1 -40 5 -71 7 -31
2 -65 7 -76 10 -11 3 -22 3 -26 0z m158 -263 c91 -28 162 -99 196 -196 28 -80
29 -84 36 -201 l6 -101 -384 1 -384 1 2 64 c2 87 21 186 49 248 24 55 110 156
125 147 5 -3 9 -1 9 5 0 8 64 33 115 44 38 8 190 0 230 -12z"/>
<path d="M26899 12245 c-3 -2 -30 -7 -61 -10 -30 -3 -66 -8 -79 -11 -13 -3
-33 -7 -44 -9 -11 -2 -20 -4 -20 -5 0 -1 -7 -3 -16 -5 -43 -8 -137 -63 -176
-102 -67 -68 -101 -157 -104 -268 -1 -32 14 -122 23 -132 5 -7 7 -16 4 -22 -3
-5 -3 -11 1 -13 5 -1 17 -21 28 -43 38 -78 168 -193 325 -287 80 -48 150 -92
157 -98 7 -5 15 -10 18 -10 4 0 50 -29 103 -64 108 -71 169 -131 183 -179 10
-33 10 -115 0 -132 -3 -5 -6 -12 -6 -15 -2 -15 -37 -70 -45 -70 -5 0 -15 -6
-22 -13 -7 -7 -39 -20 -70 -28 -76 -21 -370 -17 -542 7 -42 6 -70 7 -117 5
-31 -1 -49 -35 -38 -73 4 -15 4 -28 0 -30 -4 -2 -3 -22 2 -46 11 -54 34 -66
175 -87 84 -12 265 -27 310 -26 17 1 40 1 55 0 42 -2 181 13 232 26 70 18 170
65 202 94 12 12 27 21 33 21 6 0 9 4 6 9 -3 5 1 11 9 14 19 8 56 80 77 152 24
85 19 233 -10 297 -12 26 -22 52 -22 57 0 6 -4 11 -10 11 -5 0 -10 4 -10 10 0
9 -19 33 -66 85 -44 48 -230 173 -416 280 -143 82 -268 176 -268 202 0 6 -6
13 -12 16 -18 5 -17 136 1 169 12 24 91 77 91 62 0 -3 6 -2 13 3 25 19 201 22
437 8 205 -13 240 -12 250 5 5 8 10 48 10 88 0 76 -17 110 -57 113 -10 1 -27
3 -38 4 -11 2 -35 5 -52 6 -18 2 -33 6 -33 9 0 3 -21 6 -48 6 -130 5 -274 14
-283 19 -5 4 -9 2 -9 -2 0 -11 -53 -11 -61 0 -3 4 -8 5 -10 2z"/>
<path d="M24046 12213 c-24 -12 -63 -63 -49 -63 10 0 10 -366 0 -376 -3 -4 -3
-14 1 -23 7 -14 8 -607 2 -621 -1 -3 -1 -9 0 -15 2 -5 4 -141 4 -302 1 -321 1
-321 63 -329 60 -9 192 -5 211 5 11 6 24 23 29 38 5 16 8 394 7 842 l-1 814
-23 19 c-16 13 -40 18 -84 19 -33 0 -78 1 -99 2 -21 1 -48 -3 -61 -10z"/>
</g>
</svg>
